<mxfile host="app.diagrams.net" modified="2023-12-15T09:16:04.014Z" agent="Mozilla/5.0 (Windows NT 10.0; Win64; x64; rv:120.0) Gecko/20100101 Firefox/120.0" etag="R-8jrYPLGkVOQ25nIJg8" version="22.1.9" type="github">
  <diagram id="C5RBs43oDa-KdzZeNtuy" name="Page-1">
    <mxGraphModel dx="1050" dy="538" grid="1" gridSize="10" guides="1" tooltips="1" connect="1" arrows="1" fold="1" page="1" pageScale="1" pageWidth="827" pageHeight="1169" math="0" shadow="0">
      <root>
        <mxCell id="WIyWlLk6GJQsqaUBKTNV-0" />
        <mxCell id="WIyWlLk6GJQsqaUBKTNV-1" parent="WIyWlLk6GJQsqaUBKTNV-0" />
        <mxCell id="nkFL1_MIGFsqh9c0IYvb-1" value="" style="edgeStyle=orthogonalEdgeStyle;rounded=0;orthogonalLoop=1;jettySize=auto;html=1;fontSize=14;" edge="1" parent="WIyWlLk6GJQsqaUBKTNV-1" source="WIyWlLk6GJQsqaUBKTNV-3" target="nkFL1_MIGFsqh9c0IYvb-0">
          <mxGeometry relative="1" as="geometry" />
        </mxCell>
        <mxCell id="WIyWlLk6GJQsqaUBKTNV-3" value="Gép tönkrement" style="rounded=1;whiteSpace=wrap;html=1;fontSize=14;glass=0;strokeWidth=1;shadow=0;" parent="WIyWlLk6GJQsqaUBKTNV-1" vertex="1">
          <mxGeometry x="101" y="210" width="120" height="40" as="geometry" />
        </mxCell>
        <mxCell id="nkFL1_MIGFsqh9c0IYvb-3" value="" style="edgeStyle=orthogonalEdgeStyle;rounded=0;orthogonalLoop=1;jettySize=auto;html=1;fontSize=14;" edge="1" parent="WIyWlLk6GJQsqaUBKTNV-1" source="nkFL1_MIGFsqh9c0IYvb-0" target="nkFL1_MIGFsqh9c0IYvb-2">
          <mxGeometry relative="1" as="geometry" />
        </mxCell>
        <mxCell id="nkFL1_MIGFsqh9c0IYvb-0" value="Gépet javíttatják TIG-en keresztül" style="whiteSpace=wrap;html=1;rounded=1;glass=0;strokeWidth=1;shadow=0;fontSize=14;" vertex="1" parent="WIyWlLk6GJQsqaUBKTNV-1">
          <mxGeometry x="301" y="200" width="150" height="60" as="geometry" />
        </mxCell>
        <mxCell id="nkFL1_MIGFsqh9c0IYvb-2" value="MIRO számlát könyvelnek költséghelyre" style="whiteSpace=wrap;html=1;rounded=1;glass=0;strokeWidth=1;shadow=0;fontSize=14;" vertex="1" parent="WIyWlLk6GJQsqaUBKTNV-1">
          <mxGeometry x="546" y="200" width="165" height="60" as="geometry" />
        </mxCell>
        <mxCell id="nkFL1_MIGFsqh9c0IYvb-6" value="" style="edgeStyle=orthogonalEdgeStyle;rounded=0;orthogonalLoop=1;jettySize=auto;html=1;" edge="1" parent="WIyWlLk6GJQsqaUBKTNV-1" source="nkFL1_MIGFsqh9c0IYvb-4" target="nkFL1_MIGFsqh9c0IYvb-5">
          <mxGeometry relative="1" as="geometry" />
        </mxCell>
        <mxCell id="nkFL1_MIGFsqh9c0IYvb-4" value="Javított gép cikkszámot bevételezik" style="rounded=1;whiteSpace=wrap;html=1;fontSize=14;glass=0;strokeWidth=1;shadow=0;" vertex="1" parent="WIyWlLk6GJQsqaUBKTNV-1">
          <mxGeometry x="96" y="320" width="130" height="70" as="geometry" />
        </mxCell>
        <mxCell id="nkFL1_MIGFsqh9c0IYvb-5" value="A javított gép értéke készletértékben egyezzen meg a javítás szolgáltatás költségével" style="whiteSpace=wrap;html=1;fontSize=14;rounded=1;glass=0;strokeWidth=1;shadow=0;" vertex="1" parent="WIyWlLk6GJQsqaUBKTNV-1">
          <mxGeometry x="316" y="322.5" width="415" height="65" as="geometry" />
        </mxCell>
        <mxCell id="nkFL1_MIGFsqh9c0IYvb-7" value="" style="edgeStyle=orthogonalEdgeStyle;rounded=0;orthogonalLoop=1;jettySize=auto;html=1;fontSize=14;" edge="1" parent="WIyWlLk6GJQsqaUBKTNV-1" source="nkFL1_MIGFsqh9c0IYvb-8" target="nkFL1_MIGFsqh9c0IYvb-9">
          <mxGeometry relative="1" as="geometry" />
        </mxCell>
        <mxCell id="nkFL1_MIGFsqh9c0IYvb-8" value="Gépet megvásárolják BMEG-en keresztül, cikkszámon" style="rounded=1;whiteSpace=wrap;html=1;fontSize=14;glass=0;strokeWidth=1;shadow=0;" vertex="1" parent="WIyWlLk6GJQsqaUBKTNV-1">
          <mxGeometry x="74" y="85" width="200" height="50" as="geometry" />
        </mxCell>
        <mxCell id="nkFL1_MIGFsqh9c0IYvb-9" value="Gép cikkszámot kiírják költséghelyre" style="whiteSpace=wrap;html=1;rounded=1;glass=0;strokeWidth=1;shadow=0;fontSize=14;" vertex="1" parent="WIyWlLk6GJQsqaUBKTNV-1">
          <mxGeometry x="325" y="80" width="429" height="60" as="geometry" />
        </mxCell>
        <mxCell id="nkFL1_MIGFsqh9c0IYvb-11" value="" style="curved=1;endArrow=classic;html=1;rounded=0;edgeStyle=orthogonalEdgeStyle;exitX=1;exitY=0.5;exitDx=0;exitDy=0;entryX=0.25;entryY=0;entryDx=0;entryDy=0;" edge="1" parent="WIyWlLk6GJQsqaUBKTNV-1" source="nkFL1_MIGFsqh9c0IYvb-9" target="WIyWlLk6GJQsqaUBKTNV-3">
          <mxGeometry width="50" height="50" relative="1" as="geometry">
            <mxPoint x="415" y="185" as="sourcePoint" />
            <mxPoint x="465" y="135" as="targetPoint" />
            <Array as="points">
              <mxPoint x="754" y="185" />
              <mxPoint x="430" y="185" />
              <mxPoint x="430" y="170" />
              <mxPoint x="131" y="170" />
            </Array>
          </mxGeometry>
        </mxCell>
      </root>
    </mxGraphModel>
  </diagram>
</mxfile>
